<svg xmlns="http://www.w3.org/2000/svg" width="39.98" height="48"><rect width="100%" height="100%" fill="#2b2b31"/><path fill="#ecc94b" d="M.066 35.883 0 35.886v6.4a17.4 17.4 0 0 1 6.516 1.247l4.837 1.936a23.32 23.32 0 0 0 17.405 0l4.834-1.936a17.3 17.3 0 0 1 6.388-1.245v-6.402a23.4 23.4 0 0 0-8.64 1.683l-4.835 1.934a17.28 17.28 0 0 1-12.9 0l-4.84-1.936a23.4 23.4 0 0 0-8.7-1.684z"/><path fill="#f44034" d="M0 0v.553a17.35 17.35 0 0 1 6.516 1.245l4.837 1.938a23.32 23.32 0 0 0 17.405-.002L33.592 1.8A17.3 17.3 0 0 1 39.98.553V0Zm.066 42.148q-.033.002-.066.004V48h39.98v-5.847a23.4 23.4 0 0 0-8.64 1.681l-4.835 1.936a17.28 17.28 0 0 1-12.9 0l-4.84-1.937a23.4 23.4 0 0 0-8.7-1.685Z"/><path fill="#00bdd6" d="M.066 6.683 0 6.686v6.4a17.4 17.4 0 0 1 6.516 1.247l4.837 1.936a23.32 23.32 0 0 0 17.405 0l4.834-1.936c2.267-.964 4.362-1.373 6.388-1.37V6.686a23.4 23.4 0 0 0-8.64 1.683l-4.835 1.934a17.28 17.28 0 0 1-12.9 0l-4.84-1.936a23.4 23.4 0 0 0-8.7-1.684Z"/></svg>