<svg xmlns="http://www.w3.org/2000/svg" width="48" height="48"><rect width="100%" height="100%" fill="#2b2b31"/><path fill="#ecc94b" d="M0 0v15a2.5 2.5 0 0 0 .752-4.883V4.941A5 5 0 0 0 4.943.752h5.174A2.5 2.5 0 0 0 15 0zm33 0a2.5 2.5 0 0 0 4.883.752h5.176a5 5 0 0 0 4.189 4.191v5.174A2.5 2.5 0 0 0 48 15V0zm-9 9a2.5 2.5 0 0 0-.752 4.883v5.176a5 5 0 0 0-4.191 4.189h-5.174a2.5 2.5 0 1 0 0 1.504h5.176a5 5 0 0 0 4.189 4.191v5.174a2.5 2.5 0 1 0 1.504 0v-5.176a5 5 0 0 0 4.191-4.189h5.174a2.5 2.5 0 1 0 0-1.504h-5.176a5 5 0 0 0-4.189-4.191v-5.174A2.5 2.5 0 0 0 24 9M0 33v15h15a2.5 2.5 0 0 0-4.883-.752H4.941a5 5 0 0 0-4.189-4.191v-5.174A2.5 2.5 0 0 0 0 33m48 0a2.5 2.5 0 0 0-.752 4.883v5.176a5 5 0 0 0-4.191 4.189h-5.174A2.5 2.5 0 0 0 33 48h15z"/><path fill="#f44034" d="M19.002 0a5 5 0 0 0 .973 2.965l-3.66 3.658a2.5 2.5 0 0 0-2.922.447 2.5 2.5 0 1 0 3.986.614l3.658-3.659a5 5 0 0 0 5.926 0l3.66 3.66a2.5 2.5 0 0 0 .447 2.92 2.5 2.5 0 1 0 .614-3.984l-3.659-3.658A5 5 0 0 0 29 0zM8.809 12.66a2.5 2.5 0 0 0-2.188 3.656l-3.658 3.659A5 5 0 0 0 0 19.002v9.996a5 5 0 0 0 2.963-.973l3.66 3.66a2.5 2.5 0 1 0 3.984-.615 2.5 2.5 0 0 0-2.923-.449l-3.659-3.658a5 5 0 0 0 0-5.928l3.66-3.658a2.5 2.5 0 1 0 1.124-4.717m28.584.732a2.5 2.5 0 0 0 2.923 3.987l3.659 3.658a5 5 0 0 0 0 5.928l-3.66 3.658a2.5 2.5 0 1 0 .615 3.984 2.5 2.5 0 0 0 .449-2.923l3.658-3.659a5 5 0 0 0 2.963.973V19a5 5 0 0 0-2.965.973l-3.658-3.659a2.5 2.5 0 0 0-.447-2.921 2.51 2.51 0 0 0-1.75-.731 2.5 2.5 0 0 0-1.787.73M15.13 36.66l-.071.002a2.5 2.5 0 1 0 1.257 4.717l3.659 3.658A5 5 0 0 0 19.002 48H29a5 5 0 0 0-.973-2.965l3.659-3.658a2.5 2.5 0 1 0-1.065-1.061l-3.658 3.659a5 5 0 0 0-5.928-.002l-3.658-3.659a2.5 2.5 0 0 0-2.247-3.654"/></svg>